<svg width="20" height="20" viewBox="0 0 20 20" fill="none" xmlns="http://www.w3.org/2000/svg">
<g clip-path="url(#clip0_101_832)">
<path d="M14.1875 10.4212C14.1875 9.5475 13.6625 8.99875 12.9363 8.99875C12.2063 8.99875 11.7438 9.55375 11.7438 10.5475V11.1137C11.7438 12.1137 12.2113 12.6737 12.9588 12.6737C13.6938 12.6737 14.1888 12.1237 14.1888 11.1737L14.1875 10.4212ZM7.42127 10.7175L6.50377 7.685H6.43752L5.52002 10.7175H7.42127Z" fill="#34D89D"/>
<path d="M2.5 2.5C1.83696 2.5 1.20107 2.76339 0.732233 3.23223C0.263392 3.70107 0 4.33696 0 5L0 15C0 15.663 0.263392 16.2989 0.732233 16.7678C1.20107 17.2366 1.83696 17.5 2.5 17.5H17.5C18.163 17.5 18.7989 17.2366 19.2678 16.7678C19.7366 16.2989 20 15.663 20 15V5C20 4.33696 19.7366 3.70107 19.2678 3.23223C18.7989 2.76339 18.163 2.5 17.5 2.5H2.5ZM10.2612 10.4C10.2612 8.8 11.1287 7.845 12.4525 7.845C13.2712 7.845 13.8975 8.2125 14.1225 8.80625H14.1887V5.85625H15.6387V13.75H14.2163V12.8163H14.145C13.9637 13.4088 13.2825 13.8213 12.4363 13.8213C11.1175 13.8213 10.2612 12.8662 10.2612 11.2675V10.4ZM5.21125 11.8225L4.625 13.75H3.125L5.64125 6.25125H7.375L9.88125 13.75H8.305L7.7175 11.8225H5.21125Z" fill="#34D89D"/>
</g>
<defs>
<clipPath id="clip0_101_832">
<rect width="20" height="20" fill="white"/>
</clipPath>
</defs>
</svg>
