<svg width="21" height="20" viewBox="0 0 21 20" fill="none" xmlns="http://www.w3.org/2000/svg">
<path d="M13.5975 2.05874C13.6216 1.98028 13.6301 1.89783 13.6224 1.8161C13.6146 1.73438 13.5909 1.65497 13.5524 1.58243C13.514 1.50988 13.4617 1.44561 13.3984 1.39329C13.3352 1.34097 13.2622 1.30162 13.1838 1.27749C13.1053 1.25336 13.0229 1.24492 12.9411 1.25266C12.8594 1.26039 12.78 1.28415 12.7075 1.32257C12.6349 1.36099 12.5706 1.41332 12.5183 1.47658C12.466 1.53984 12.4266 1.61278 12.4025 1.69124L7.40252 17.9412C7.35378 18.0997 7.37 18.271 7.44759 18.4176C7.52518 18.5641 7.6578 18.6738 7.81627 18.7225C7.97474 18.7712 8.14607 18.755 8.29258 18.6774C8.4391 18.5998 8.54879 18.4672 8.59752 18.3087L13.5975 2.05874ZM6.56752 5.18249C6.62572 5.24055 6.6719 5.30952 6.70341 5.38545C6.73492 5.46138 6.75114 5.54279 6.75114 5.62499C6.75114 5.7072 6.73492 5.7886 6.70341 5.86454C6.6719 5.94047 6.62572 6.00944 6.56752 6.06749L2.63377 9.99999L6.56752 13.9325C6.68488 14.0499 6.75081 14.209 6.75081 14.375C6.75081 14.541 6.68488 14.7001 6.56752 14.8175C6.45016 14.9349 6.29099 15.0008 6.12502 15.0008C5.95905 15.0008 5.79988 14.9349 5.68252 14.8175L1.30752 10.4425C1.24931 10.3844 1.20314 10.3155 1.17163 10.2395C1.14012 10.1636 1.1239 10.0822 1.1239 9.99999C1.1239 9.91779 1.14012 9.83638 1.17163 9.76045C1.20314 9.68452 1.24931 9.61555 1.30752 9.55749L5.68252 5.18249C5.74058 5.12429 5.80955 5.07811 5.88548 5.0466C5.96141 5.0151 6.04281 4.99888 6.12502 4.99888C6.20723 4.99888 6.28863 5.0151 6.36456 5.0466C6.44049 5.07811 6.50946 5.12429 6.56752 5.18249ZM14.4325 5.18249C14.3743 5.24055 14.3281 5.30952 14.2966 5.38545C14.2651 5.46138 14.2489 5.54279 14.2489 5.62499C14.2489 5.7072 14.2651 5.7886 14.2966 5.86454C14.3281 5.94047 14.3743 6.00944 14.4325 6.06749L18.3663 9.99999L14.4325 13.9325C14.3744 13.9906 14.3283 14.0596 14.2969 14.1355C14.2654 14.2114 14.2492 14.2928 14.2492 14.375C14.2492 14.4572 14.2654 14.5386 14.2969 14.6145C14.3283 14.6904 14.3744 14.7594 14.4325 14.8175C14.4906 14.8756 14.5596 14.9217 14.6355 14.9531C14.7115 14.9846 14.7928 15.0008 14.875 15.0008C14.9572 15.0008 15.0386 14.9846 15.1145 14.9531C15.1904 14.9217 15.2594 14.8756 15.3175 14.8175L19.6925 10.4425C19.7507 10.3844 19.7969 10.3155 19.8284 10.2395C19.8599 10.1636 19.8761 10.0822 19.8761 9.99999C19.8761 9.91779 19.8599 9.83638 19.8284 9.76045C19.7969 9.68452 19.7507 9.61555 19.6925 9.55749L15.3175 5.18249C15.2595 5.12429 15.1905 5.07811 15.1146 5.0466C15.0386 5.0151 14.9572 4.99888 14.875 4.99888C14.7928 4.99888 14.7114 5.0151 14.6355 5.0466C14.5595 5.07811 14.4906 5.12429 14.4325 5.18249Z" fill="#34D89D"/>
</svg>
