<svg width="20" height="20" viewBox="0 0 20 20" fill="none" xmlns="http://www.w3.org/2000/svg">
<g clip-path="url(#clip0_101_837)">
<path d="M18.352 9.50027C17.9064 8.73973 17.2707 8.10818 16.5072 7.66766C15.9243 7.32891 15.3216 7.11376 14.641 7.02068V4.58381C14.9711 4.44705 15.2525 4.21442 15.4489 3.91601C15.6453 3.61759 15.7476 3.26711 15.7427 2.9099C15.7439 2.66866 15.6975 2.42957 15.606 2.20636C15.5145 1.98314 15.3798 1.7802 15.2097 1.6092C15.0395 1.4382 14.8372 1.3025 14.6145 1.20991C14.3917 1.11732 14.1529 1.06965 13.9116 1.06966C13.423 1.06965 12.9543 1.26334 12.6082 1.60828C12.2621 1.95322 12.0669 2.42127 12.0653 2.9099C12.0653 3.65759 12.462 4.29541 13.1441 4.58381V7.00694C12.5791 7.0887 12.0309 7.26078 11.5205 7.51659L4.99731 2.57725C5.04309 2.40482 5.08277 2.22629 5.08277 2.03861C5.08277 0.912489 4.17028 0 3.04416 0C1.91804 0 1.00708 0.912489 1.00708 2.03861C1.00708 3.16472 1.91957 4.07721 3.04569 4.07721C3.43021 4.07721 3.78575 3.96429 4.09245 3.77966L4.51971 4.10315L10.3715 8.32227C10.0618 8.60609 9.77339 8.92958 9.54298 9.29274C9.07605 10.0328 8.79071 10.8461 8.79071 11.7342V11.9173C8.79277 12.5196 8.90125 13.1167 9.11115 13.6812C9.28815 14.1634 9.54756 14.6029 9.86952 14.9996L7.92552 16.9482C7.35026 16.7346 6.7048 16.8765 6.26992 17.3114C5.97389 17.6059 5.80757 18.0072 5.80909 18.4253C5.81062 18.8434 5.97389 19.2416 6.27144 19.5392C6.56899 19.8367 6.96725 20.0015 7.38535 20.0015C7.80345 20.0015 8.20476 19.8367 8.49926 19.5392C8.79376 19.2416 8.96161 18.8434 8.96008 18.4253C8.95996 18.2648 8.93526 18.1053 8.88684 17.9522L10.8949 15.9442C11.1696 16.1349 11.4671 16.2951 11.7876 16.4324C12.4462 16.7213 13.1574 16.8709 13.8765 16.8719H14.0139C14.8562 16.8719 15.6512 16.6735 16.3973 16.2692C17.1643 15.8579 17.8087 15.2509 18.265 14.5098C18.7335 13.7621 18.9898 12.9335 18.9898 12.0226V11.9768C18.9898 11.0811 18.7823 10.2556 18.349 9.49874L18.352 9.50027ZM15.8999 13.7148C15.3551 14.3206 14.728 14.6944 14.02 14.6944H13.8857C13.4813 14.6944 13.0846 14.583 12.6985 14.3786C12.2752 14.1585 11.9166 13.8319 11.6579 13.431C11.3771 13.0343 11.2245 12.6009 11.2245 12.1416V12.0043C11.2245 11.5526 11.3115 11.1238 11.5297 10.7195C11.7632 10.2617 12.079 9.93362 12.4987 9.66049C12.9183 9.38735 13.3501 9.25612 13.8414 9.25612H13.8872C14.3297 9.25612 14.7524 9.3431 15.1491 9.54604C15.5511 9.75742 15.8924 10.0678 16.141 10.4479C16.3871 10.829 16.5392 11.263 16.585 11.7144L16.5957 11.9997C16.5957 12.6207 16.3577 13.196 15.8831 13.7179L15.8999 13.7148Z" fill="#34D89D"/>
</g>
<defs>
<clipPath id="clip0_101_837">
<rect width="20" height="20" fill="white"/>
</clipPath>
</defs>
</svg>
