<svg width="100" height="100" viewBox="0 0 100 100" fill="none" xmlns="http://www.w3.org/2000/svg">
<path d="M18 26C18 25.2927 18.281 24.6145 18.781 24.1144C19.2811 23.6143 19.9594 23.3333 20.6667 23.3333H79.3333C80.0406 23.3333 80.7189 23.6143 81.219 24.1144C81.7191 24.6145 82 25.2927 82 26C82 26.7072 81.7191 27.3855 81.219 27.8856C80.7189 28.3857 80.0406 28.6666 79.3333 28.6666H20.6667C19.9594 28.6666 19.2811 28.3857 18.781 27.8856C18.281 27.3855 18 26.7072 18 26ZM21.4453 37.4453C21.693 37.197 21.9873 36.9999 22.3113 36.8655C22.6353 36.7311 22.9826 36.6619 23.3333 36.6619C23.6841 36.6619 24.0314 36.7311 24.3554 36.8655C24.6794 36.9999 24.9736 37.197 25.2213 37.4453L35.888 48.112C36.1363 48.3597 36.3334 48.654 36.4678 48.9779C36.6022 49.3019 36.6714 49.6492 36.6714 50C36.6714 50.3507 36.6022 50.6981 36.4678 51.022C36.3334 51.346 36.1363 51.6403 35.888 51.888L25.2213 62.5547C24.9734 62.8026 24.6791 62.9993 24.3551 63.1334C24.0312 63.2676 23.684 63.3367 23.3333 63.3367C22.9827 63.3367 22.6355 63.2676 22.3116 63.1334C21.9876 62.9993 21.6933 62.8026 21.4453 62.5547C21.1974 62.3067 21.0007 62.0124 20.8665 61.6884C20.7324 61.3645 20.6633 61.0173 20.6633 60.6666C20.6633 60.316 20.7324 59.9688 20.8665 59.6449C21.0007 59.3209 21.1974 59.0266 21.4453 58.7786L30.2293 50L21.4453 41.2213C21.197 40.9736 21 40.6793 20.8655 40.3554C20.7311 40.0314 20.6619 39.6841 20.6619 39.3333C20.6619 38.9826 20.7311 38.6352 20.8655 38.3113C21 37.9873 21.197 37.693 21.4453 37.4453ZM44.6667 42C44.6667 41.2927 44.9476 40.6145 45.4477 40.1144C45.9478 39.6143 46.6261 39.3333 47.3333 39.3333H79.3333C80.0406 39.3333 80.7189 39.6143 81.219 40.1144C81.7191 40.6145 82 41.2927 82 42C82 42.7072 81.7191 43.3855 81.219 43.8856C80.7189 44.3857 80.0406 44.6666 79.3333 44.6666H47.3333C46.6261 44.6666 45.9478 44.3857 45.4477 43.8856C44.9476 43.3855 44.6667 42.7072 44.6667 42ZM44.6667 58C44.6667 57.2927 44.9476 56.6145 45.4477 56.1144C45.9478 55.6143 46.6261 55.3333 47.3333 55.3333H79.3333C80.0406 55.3333 80.7189 55.6143 81.219 56.1144C81.7191 56.6145 82 57.2927 82 58C82 58.7072 81.7191 59.3855 81.219 59.8856C80.7189 60.3857 80.0406 60.6666 79.3333 60.6666H47.3333C46.6261 60.6666 45.9478 60.3857 45.4477 59.8856C44.9476 59.3855 44.6667 58.7072 44.6667 58ZM18 74C18 73.2927 18.281 72.6145 18.781 72.1144C19.2811 71.6143 19.9594 71.3333 20.6667 71.3333H79.3333C80.0406 71.3333 80.7189 71.6143 81.219 72.1144C81.7191 72.6145 82 73.2927 82 74C82 74.7072 81.7191 75.3855 81.219 75.8856C80.7189 76.3857 80.0406 76.6666 79.3333 76.6666H20.6667C19.9594 76.6666 19.2811 76.3857 18.781 75.8856C18.281 75.3855 18 74.7072 18 74Z" fill="#34D89D"/>
<rect x="2.75" y="2.75" width="94.5" height="94.5" stroke="#34D89D" stroke-width="5.5"/>
</svg>
