<svg width="20" height="20" viewBox="0 0 20 20" fill="none" xmlns="http://www.w3.org/2000/svg">
<path d="M7.74001 3.47501C7.16751 2.62876 6.58126 1.91501 6.05251 1.42126C5.79014 1.16397 5.49105 0.947022 5.16501 0.777514C4.89376 0.647514 4.46501 0.521264 4.06251 0.752514C3.60376 1.01876 3.52876 1.54001 3.52501 1.87251C3.52126 2.25251 3.60501 2.70251 3.74126 3.17751C3.98626 4.03626 4.43626 5.08751 5.03501 6.18001L0.94001 10.275C0.59376 10.6213 0.60376 11.095 0.66751 11.4225C0.73626 11.7763 0.90126 12.1638 1.11751 12.5513C1.55251 13.335 2.26751 14.2525 3.15001 15.1363C4.03376 16.02 4.95126 16.7338 5.73501 17.1688C6.12251 17.385 6.51001 17.55 6.86376 17.6188C7.19126 17.6813 7.66376 17.6925 8.01126 17.3463L15.03 10.3275C15.1775 10.6488 15.145 10.9675 15.0925 11.5013C15.055 11.8663 15.0075 12.3325 15.0013 12.9713V13.125H15.005C15.0312 13.4373 15.1738 13.7284 15.4045 13.9406C15.6352 14.1528 15.9372 14.2705 16.2506 14.2705C16.5641 14.2705 16.8661 14.1528 17.0968 13.9406C17.3275 13.7284 17.4701 13.4373 17.4963 13.125H17.5V13.0538C17.5012 13.005 17.4995 12.9561 17.495 12.9075C17.4263 11.345 16.62 9.48501 15.17 8.54001C15.0923 8.35441 15.0042 8.17329 14.9063 7.99751C14.47 7.21501 13.7563 6.29751 12.8725 5.41376C11.9888 4.53001 11.0713 3.81501 10.2875 3.38001C9.90001 3.16501 9.51251 3.00001 9.15876 2.93001C8.83126 2.86751 8.35876 2.85751 8.01126 3.20376L7.74001 3.47501ZM5.20001 2.33376C5.67626 2.77876 6.25501 3.48626 6.83876 4.37376L5.95876 5.25501C5.48126 4.34626 5.13376 3.50251 4.94251 2.83251C4.85871 2.55858 4.80383 2.27663 4.77876 1.99126C4.89251 2.06751 5.03376 2.17876 5.20001 2.33376ZM5.69251 7.29001C6.36751 8.35501 7.07626 9.24876 7.70126 9.83126C7.76134 9.88724 7.83186 9.93083 7.90878 9.95956C7.98571 9.98828 8.06754 10.0016 8.14961 9.99867C8.23167 9.99577 8.31236 9.97673 8.38707 9.94265C8.46177 9.90856 8.52903 9.86009 8.58501 9.80001C8.64099 9.73993 8.68458 9.66942 8.7133 9.59249C8.74203 9.51556 8.75532 9.43373 8.75242 9.35167C8.74951 9.2696 8.73048 9.18891 8.69639 9.11421C8.66231 9.0395 8.61384 8.97224 8.55376 8.91626C7.98751 8.38876 7.28251 7.49626 6.59876 6.38251L7.95876 5.02251C8.02626 5.17251 8.10251 5.32626 8.18751 5.47876C8.62376 6.26251 9.33751 7.18001 10.2213 8.06376C11.1038 8.94751 12.0213 9.66126 12.8063 10.0963C12.9588 10.1813 13.1113 10.2588 13.2625 10.325L7.18626 16.4025C7.1577 16.4001 7.12932 16.3959 7.10126 16.39C6.93001 16.3563 6.67376 16.26 6.34126 16.075C5.68626 15.71 4.85876 15.075 4.03376 14.25C3.20876 13.425 2.57376 12.6 2.20876 11.9425C2.02501 11.6113 1.92751 11.355 1.89501 11.1838C1.88915 11.1557 1.88497 11.1273 1.88251 11.0988L5.69251 7.29001ZM9.28001 4.87126C9.15063 4.65105 9.04942 4.41546 8.97876 4.17001C9.14751 4.21126 9.38376 4.30751 9.68126 4.47126C10.3363 4.83626 11.1638 5.47126 11.9888 6.29626C12.5513 6.85876 13.0263 7.42251 13.3863 7.93376C12.9389 7.90311 12.4895 7.94148 12.0538 8.04751C11.724 7.77297 11.4071 7.4835 11.1038 7.18001C10.2788 6.35501 9.64501 5.52751 9.28126 4.87126H9.28001Z" fill="#34D89D"/>
</svg>
