<svg width="21" height="20" viewBox="0 0 21 20" fill="none" xmlns="http://www.w3.org/2000/svg">
<g clip-path="url(#clip0_101_810)">
<path d="M16.0413 12.5875C18.1663 13.2313 20.5 13.9375 20.5 10C20.5 8.02219 19.9135 6.08879 18.8147 4.4443C17.7159 2.79981 16.1541 1.51809 14.3268 0.761209C12.4996 0.00433281 10.4889 -0.193701 8.5491 0.192152C6.60929 0.578004 4.82746 1.53041 3.42894 2.92894C2.03041 4.32746 1.078 6.10929 0.692152 8.0491C0.306299 9.98891 0.504333 11.9996 1.26121 13.8268C2.01809 15.6541 3.29981 17.2159 4.9443 18.3147C6.58879 19.4135 8.52219 20 10.5 20C12.995 20 12.7825 18.12 12.5613 16.15C12.4063 14.7738 12.2463 13.3538 13 12.5C13.5813 11.8413 14.775 12.2038 16.0413 12.5875ZM10.5 6.25C10.2538 6.25 10.01 6.20151 9.78247 6.10728C9.55499 6.01305 9.34829 5.87494 9.17418 5.70083C9.00007 5.52672 8.86196 5.32002 8.76773 5.09254C8.6735 4.86505 8.625 4.62123 8.625 4.375C8.625 4.12878 8.6735 3.88496 8.76773 3.65747C8.86196 3.42999 9.00007 3.22329 9.17418 3.04918C9.34829 2.87507 9.55499 2.73696 9.78247 2.64273C10.01 2.5485 10.2538 2.5 10.5 2.5C10.9973 2.5 11.4742 2.69755 11.8258 3.04918C12.1775 3.40081 12.375 3.87772 12.375 4.375C12.375 4.87229 12.1775 5.3492 11.8258 5.70083C11.4742 6.05246 10.9973 6.25 10.5 6.25ZM16.125 10C15.6277 10 15.1508 9.80246 14.7992 9.45083C14.4475 9.0992 14.25 8.62229 14.25 8.125C14.25 7.62772 14.4475 7.15081 14.7992 6.79918C15.1508 6.44755 15.6277 6.25 16.125 6.25C16.6223 6.25 17.0992 6.44755 17.4508 6.79918C17.8025 7.15081 18 7.62772 18 8.125C18 8.62229 17.8025 9.0992 17.4508 9.45083C17.0992 9.80246 16.6223 10 16.125 10ZM6.75 8.125C6.75 8.37123 6.70151 8.61505 6.60728 8.84254C6.51305 9.07002 6.37494 9.27672 6.20083 9.45083C6.02672 9.62494 5.82002 9.76305 5.59254 9.85728C5.36505 9.95151 5.12123 10 4.875 10C4.62878 10 4.38496 9.95151 4.15747 9.85728C3.92999 9.76305 3.72329 9.62494 3.54918 9.45083C3.37507 9.27672 3.23696 9.07002 3.14273 8.84254C3.0485 8.61505 3 8.37123 3 8.125C3 7.62772 3.19755 7.15081 3.54918 6.79918C3.90081 6.44755 4.37772 6.25 4.875 6.25C5.37229 6.25 5.8492 6.44755 6.20083 6.79918C6.55246 7.15081 6.75 7.62772 6.75 8.125ZM7.375 16.25C6.87772 16.25 6.40081 16.0525 6.04918 15.7008C5.69755 15.3492 5.5 14.8723 5.5 14.375C5.5 13.8777 5.69755 13.4008 6.04918 13.0492C6.40081 12.6975 6.87772 12.5 7.375 12.5C7.87229 12.5 8.3492 12.6975 8.70083 13.0492C9.05246 13.4008 9.25 13.8777 9.25 14.375C9.25 14.8723 9.05246 15.3492 8.70083 15.7008C8.3492 16.0525 7.87229 16.25 7.375 16.25Z" fill="#34D89D"/>
</g>
<defs>
<clipPath id="clip0_101_810">
<rect width="20" height="20" fill="white" transform="translate(0.5)"/>
</clipPath>
</defs>
</svg>
