<svg width="21" height="18" viewBox="0 0 21 18" fill="none" xmlns="http://www.w3.org/2000/svg">
<path fill-rule="evenodd" clip-rule="evenodd" d="M3.83333 16.5C3.83333 16.279 3.92113 16.067 4.07741 15.9108C4.23369 15.7545 4.44565 15.6667 4.66667 15.6667H16.3333C16.5543 15.6667 16.7663 15.7545 16.9226 15.9108C17.0789 16.067 17.1667 16.279 17.1667 16.5C17.1667 16.721 17.0789 16.933 16.9226 17.0893C16.7663 17.2456 16.5543 17.3334 16.3333 17.3334H4.66667C4.44565 17.3334 4.23369 17.2456 4.07741 17.0893C3.92113 16.933 3.83333 16.721 3.83333 16.5ZM0.5 11.5C0.5 11.279 0.587798 11.067 0.744078 10.9108C0.900358 10.7545 1.11232 10.6667 1.33333 10.6667H19.6667C19.8877 10.6667 20.0996 10.7545 20.2559 10.9108C20.4122 11.067 20.5 11.279 20.5 11.5C20.5 11.721 20.4122 11.933 20.2559 12.0893C20.0996 12.2456 19.8877 12.3334 19.6667 12.3334H1.33333C1.11232 12.3334 0.900358 12.2456 0.744078 12.0893C0.587798 11.933 0.5 11.721 0.5 11.5ZM3.83333 6.50002C3.83333 6.27901 3.92113 6.06705 4.07741 5.91076C4.23369 5.75448 4.44565 5.66669 4.66667 5.66669H16.3333C16.5543 5.66669 16.7663 5.75448 16.9226 5.91076C17.0789 6.06705 17.1667 6.27901 17.1667 6.50002C17.1667 6.72103 17.0789 6.933 16.9226 7.08928C16.7663 7.24556 16.5543 7.33335 16.3333 7.33335H4.66667C4.44565 7.33335 4.23369 7.24556 4.07741 7.08928C3.92113 6.933 3.83333 6.72103 3.83333 6.50002ZM0.5 1.50002C0.5 1.27901 0.587798 1.06705 0.744078 0.910765C0.900358 0.754485 1.11232 0.666687 1.33333 0.666687H19.6667C19.8877 0.666687 20.0996 0.754485 20.2559 0.910765C20.4122 1.06705 20.5 1.27901 20.5 1.50002C20.5 1.72103 20.4122 1.933 20.2559 2.08928C20.0996 2.24556 19.8877 2.33335 19.6667 2.33335H1.33333C1.11232 2.33335 0.900358 2.24556 0.744078 2.08928C0.587798 1.933 0.5 1.72103 0.5 1.50002Z" fill="#34D89D"/>
</svg>
