<svg
            width="250"
            height="210"
            viewBox="0 0 250 210"
            fill="none"
            xmlns="http://www.w3.org/2000/svg"
        >
            <path
                fillRule="evenodd"
                clipRule="evenodd"
                d="M35.5317 0C41.0376 0 45.501 4.47715 45.501 10V50H61.0941C66.6 50 71.0634 54.4772 71.0634 60C71.0634 65.5228 66.6 70 61.0941 70H45.501V134.359C45.501 142.997 52.4823 150 61.0941 150C69.7059 150 76.6871 142.997 76.6871 134.359V107.756C76.6871 88.0724 92.5952 72.1154 112.219 72.1154C131.842 72.1154 147.751 88.0724 147.751 107.756V121.859C147.751 130.497 154.732 137.5 163.344 137.5C171.955 137.5 178.937 130.497 178.937 121.859V107.756C178.937 88.0724 194.845 72.1154 214.468 72.1154C234.092 72.1154 250 88.0724 250 107.756V160C250 165.523 245.537 170 240.031 170C234.525 170 230.061 165.523 230.061 160V107.756C230.061 99.1181 223.08 92.1154 214.468 92.1154C205.857 92.1154 198.875 99.1181 198.875 107.756V121.859C198.875 141.543 182.967 157.5 163.344 157.5C143.72 157.5 127.812 141.543 127.812 121.859V107.756C127.812 99.1181 120.831 92.1154 112.219 92.1154C103.607 92.1154 96.6258 99.1181 96.6258 107.756V134.359C96.6258 154.043 80.7177 170 61.0941 170C41.4705 170 25.5624 154.043 25.5624 134.359V70H9.96933C4.46342 70 0 65.5228 0 60C0 54.4772 4.46342 50 9.96933 50H25.5624V10C25.5624 4.47715 30.0258 0 35.5317 0Z"
                fill="#34D89D"
            />
            <path
                d="M34.3837 204V188.864H37.3977V204H34.3837ZM29.4557 191.196V188.534H42.3257V191.196H29.4557ZM48.723 204.22C47.6084 204.22 46.6184 203.985 45.753 203.516C44.8877 203.032 44.1984 202.372 43.685 201.536C43.1864 200.7 42.937 199.747 42.937 198.676C42.937 197.62 43.179 196.681 43.663 195.86C44.1617 195.024 44.8364 194.364 45.687 193.88C46.5377 193.381 47.4837 193.132 48.525 193.132C49.5517 193.132 50.4537 193.367 51.231 193.836C52.023 194.291 52.639 194.921 53.079 195.728C53.5337 196.52 53.761 197.422 53.761 198.434C53.761 198.625 53.7464 198.823 53.717 199.028C53.7024 199.219 53.6657 199.439 53.607 199.688L44.675 199.71V197.554L52.265 197.532L51.099 198.434C51.0697 197.803 50.9524 197.275 50.747 196.85C50.5564 196.425 50.2704 196.102 49.889 195.882C49.5224 195.647 49.0677 195.53 48.525 195.53C47.953 195.53 47.4544 195.662 47.029 195.926C46.6037 196.175 46.2737 196.535 46.039 197.004C45.819 197.459 45.709 198.001 45.709 198.632C45.709 199.277 45.8264 199.842 46.061 200.326C46.3104 200.795 46.6624 201.162 47.117 201.426C47.5717 201.675 48.0997 201.8 48.701 201.8C49.2437 201.8 49.735 201.712 50.175 201.536C50.615 201.345 50.9964 201.067 51.319 200.7L53.013 202.394C52.4997 202.995 51.869 203.45 51.121 203.758C50.3877 204.066 49.5884 204.22 48.723 204.22ZM59.0476 204V188.952H61.9296V204H59.0476ZM56.5616 195.904V193.374H64.4156V195.904H56.5616ZM68.2364 204V193.374H71.1184V204H68.2364ZM71.1184 198.126L69.9964 197.378C70.1284 196.073 70.5097 195.046 71.1404 194.298C71.771 193.535 72.6804 193.154 73.8684 193.154C74.3817 193.154 74.8437 193.242 75.2544 193.418C75.665 193.579 76.039 193.851 76.3764 194.232L74.5724 196.3C74.411 196.124 74.213 195.992 73.9784 195.904C73.7584 195.816 73.5017 195.772 73.2084 195.772C72.5924 195.772 72.0864 195.97 71.6904 196.366C71.309 196.747 71.1184 197.334 71.1184 198.126ZM83.7319 204.22C82.7639 204.22 81.8912 203.978 81.1139 203.494C80.3366 203.01 79.7279 202.35 79.2879 201.514C78.8479 200.678 78.6279 199.739 78.6279 198.698C78.6279 197.642 78.8479 196.696 79.2879 195.86C79.7279 195.024 80.3366 194.364 81.1139 193.88C81.8912 193.396 82.7639 193.154 83.7319 193.154C84.4946 193.154 85.1766 193.308 85.7779 193.616C86.3792 193.924 86.8559 194.357 87.2079 194.914C87.5746 195.457 87.7726 196.073 87.8019 196.762V200.59C87.7726 201.294 87.5746 201.917 87.2079 202.46C86.8559 203.003 86.3792 203.435 85.7779 203.758C85.1766 204.066 84.4946 204.22 83.7319 204.22ZM84.2599 201.558C85.0666 201.558 85.7192 201.294 86.2179 200.766C86.7166 200.223 86.9659 199.527 86.9659 198.676C86.9659 198.119 86.8486 197.627 86.6139 197.202C86.3939 196.762 86.0786 196.425 85.6679 196.19C85.2719 195.941 84.8026 195.816 84.2599 195.816C83.7319 195.816 83.2626 195.941 82.8519 196.19C82.4559 196.425 82.1406 196.762 81.9059 197.202C81.6859 197.627 81.5759 198.119 81.5759 198.676C81.5759 199.248 81.6859 199.754 81.9059 200.194C82.1406 200.619 82.4559 200.957 82.8519 201.206C83.2626 201.441 83.7319 201.558 84.2599 201.558ZM86.8119 204V201.14L87.2739 198.544L86.8119 195.992V193.374H89.6719V204H86.8119ZM98.9095 204.22C97.9268 204.22 97.0468 203.978 96.2695 203.494C95.4922 203.01 94.8762 202.35 94.4215 201.514C93.9815 200.678 93.7615 199.739 93.7615 198.698C93.7615 197.642 93.9815 196.696 94.4215 195.86C94.8762 195.024 95.4848 194.364 96.2475 193.88C97.0248 193.396 97.9122 193.154 98.9095 193.154C99.6722 193.154 100.354 193.308 100.956 193.616C101.572 193.924 102.063 194.357 102.43 194.914C102.811 195.457 103.016 196.073 103.046 196.762V200.546C103.016 201.235 102.818 201.859 102.452 202.416C102.085 202.973 101.594 203.413 100.978 203.736C100.362 204.059 99.6722 204.22 98.9095 204.22ZM99.3935 201.558C99.9362 201.558 100.406 201.441 100.802 201.206C101.212 200.957 101.528 200.619 101.748 200.194C101.982 199.754 102.1 199.248 102.1 198.676C102.1 198.119 101.982 197.627 101.748 197.202C101.528 196.762 101.212 196.425 100.802 196.19C100.406 195.941 99.9435 195.816 99.4155 195.816C98.8728 195.816 98.3962 195.941 97.9855 196.19C97.5895 196.439 97.2742 196.777 97.0395 197.202C96.8195 197.627 96.7095 198.119 96.7095 198.676C96.7095 199.248 96.8195 199.754 97.0395 200.194C97.2742 200.619 97.5968 200.957 98.0075 201.206C98.4182 201.441 98.8802 201.558 99.3935 201.558ZM104.806 204H101.946V201.14L102.408 198.544L101.924 195.992V188.094H104.806V204ZM116.36 204V188.534H118.472L124.742 198.566H123.532L129.78 188.534H131.892V204H128.922V193.66L129.494 193.836L125.138 200.832H123.114L118.758 193.836L119.352 193.66V204H116.36ZM141.387 204.22C140.419 204.22 139.547 203.978 138.769 203.494C137.992 203.01 137.383 202.35 136.943 201.514C136.503 200.678 136.283 199.739 136.283 198.698C136.283 197.642 136.503 196.696 136.943 195.86C137.383 195.024 137.992 194.364 138.769 193.88C139.547 193.396 140.419 193.154 141.387 193.154C142.15 193.154 142.832 193.308 143.433 193.616C144.035 193.924 144.511 194.357 144.863 194.914C145.23 195.457 145.428 196.073 145.457 196.762V200.59C145.428 201.294 145.23 201.917 144.863 202.46C144.511 203.003 144.035 203.435 143.433 203.758C142.832 204.066 142.15 204.22 141.387 204.22ZM141.915 201.558C142.722 201.558 143.375 201.294 143.873 200.766C144.372 200.223 144.621 199.527 144.621 198.676C144.621 198.119 144.504 197.627 144.269 197.202C144.049 196.762 143.734 196.425 143.323 196.19C142.927 195.941 142.458 195.816 141.915 195.816C141.387 195.816 140.918 195.941 140.507 196.19C140.111 196.425 139.796 196.762 139.561 197.202C139.341 197.627 139.231 198.119 139.231 198.676C139.231 199.248 139.341 199.754 139.561 200.194C139.796 200.619 140.111 200.957 140.507 201.206C140.918 201.441 141.387 201.558 141.915 201.558ZM144.467 204V201.14L144.929 198.544L144.467 195.992V193.374H147.327V204H144.467ZM152.077 204V193.374H154.959V204H152.077ZM154.959 198.126L153.837 197.378C153.969 196.073 154.35 195.046 154.981 194.298C155.612 193.535 156.521 193.154 157.709 193.154C158.222 193.154 158.684 193.242 159.095 193.418C159.506 193.579 159.88 193.851 160.217 194.232L158.413 196.3C158.252 196.124 158.054 195.992 157.819 195.904C157.599 195.816 157.342 195.772 157.049 195.772C156.433 195.772 155.927 195.97 155.531 196.366C155.15 196.747 154.959 197.334 154.959 198.126ZM170.205 204L166.091 198.522L170.183 193.374H173.505L168.709 199.182L168.819 197.774L173.725 204H170.205ZM163.429 204V188.094H166.311V204H163.429ZM181.84 204.22C180.726 204.22 179.736 203.985 178.87 203.516C178.005 203.032 177.316 202.372 176.802 201.536C176.304 200.7 176.054 199.747 176.054 198.676C176.054 197.62 176.296 196.681 176.78 195.86C177.279 195.024 177.954 194.364 178.804 193.88C179.655 193.381 180.601 193.132 181.642 193.132C182.669 193.132 183.571 193.367 184.348 193.836C185.14 194.291 185.756 194.921 186.196 195.728C186.651 196.52 186.878 197.422 186.878 198.434C186.878 198.625 186.864 198.823 186.834 199.028C186.82 199.219 186.783 199.439 186.724 199.688L177.792 199.71V197.554L185.382 197.532L184.216 198.434C184.187 197.803 184.07 197.275 183.864 196.85C183.674 196.425 183.388 196.102 183.006 195.882C182.64 195.647 182.185 195.53 181.642 195.53C181.07 195.53 180.572 195.662 180.146 195.926C179.721 196.175 179.391 196.535 179.156 197.004C178.936 197.459 178.826 198.001 178.826 198.632C178.826 199.277 178.944 199.842 179.178 200.326C179.428 200.795 179.78 201.162 180.234 201.426C180.689 201.675 181.217 201.8 181.818 201.8C182.361 201.8 182.852 201.712 183.292 201.536C183.732 201.345 184.114 201.067 184.436 200.7L186.13 202.394C185.617 202.995 184.986 203.45 184.238 203.758C183.505 204.066 182.706 204.22 181.84 204.22ZM192.165 204V188.952H195.047V204H192.165ZM189.679 195.904V193.374H197.533V195.904H189.679ZM201.354 204V193.374H204.258V204H201.354ZM202.806 191.658C202.336 191.658 201.948 191.504 201.64 191.196C201.332 190.873 201.178 190.477 201.178 190.008C201.178 189.553 201.332 189.165 201.64 188.842C201.948 188.519 202.336 188.358 202.806 188.358C203.29 188.358 203.678 188.519 203.972 188.842C204.28 189.165 204.434 189.553 204.434 190.008C204.434 190.477 204.28 190.873 203.972 191.196C203.678 191.504 203.29 191.658 202.806 191.658ZM216.161 204V197.906C216.161 197.275 215.963 196.762 215.567 196.366C215.171 195.97 214.657 195.772 214.027 195.772C213.616 195.772 213.249 195.86 212.927 196.036C212.604 196.212 212.347 196.461 212.157 196.784C211.981 197.107 211.893 197.481 211.893 197.906L210.771 197.334C210.771 196.498 210.947 195.772 211.299 195.156C211.665 194.525 212.164 194.034 212.795 193.682C213.44 193.33 214.166 193.154 214.973 193.154C215.75 193.154 216.447 193.352 217.063 193.748C217.679 194.129 218.163 194.635 218.515 195.266C218.867 195.882 219.043 196.549 219.043 197.268V204H216.161ZM209.011 204V193.374H211.893V204H209.011ZM228.008 208.708C226.879 208.708 225.881 208.503 225.016 208.092C224.151 207.696 223.461 207.131 222.948 206.398L224.774 204.572C225.185 205.056 225.639 205.423 226.138 205.672C226.651 205.936 227.267 206.068 227.986 206.068C228.881 206.068 229.585 205.841 230.098 205.386C230.626 204.931 230.89 204.301 230.89 203.494V200.832L231.374 198.5L230.912 196.168V193.374H233.772V203.45C233.772 204.506 233.523 205.423 233.024 206.2C232.54 206.992 231.865 207.608 231 208.048C230.135 208.488 229.137 208.708 228.008 208.708ZM227.876 203.714C226.923 203.714 226.065 203.487 225.302 203.032C224.539 202.563 223.938 201.925 223.498 201.118C223.073 200.311 222.86 199.409 222.86 198.412C222.86 197.415 223.073 196.52 223.498 195.728C223.938 194.936 224.539 194.313 225.302 193.858C226.065 193.389 226.923 193.154 227.876 193.154C228.668 193.154 229.365 193.308 229.966 193.616C230.582 193.924 231.066 194.349 231.418 194.892C231.77 195.42 231.961 196.043 231.99 196.762V200.106C231.961 200.81 231.763 201.441 231.396 201.998C231.044 202.541 230.56 202.966 229.944 203.274C229.343 203.567 228.653 203.714 227.876 203.714ZM228.448 201.096C228.976 201.096 229.431 200.986 229.812 200.766C230.208 200.531 230.516 200.216 230.736 199.82C230.956 199.409 231.066 198.947 231.066 198.434C231.066 197.906 230.956 197.444 230.736 197.048C230.516 196.652 230.208 196.344 229.812 196.124C229.431 195.889 228.976 195.772 228.448 195.772C227.92 195.772 227.458 195.889 227.062 196.124C226.666 196.344 226.358 196.659 226.138 197.07C225.918 197.466 225.808 197.921 225.808 198.434C225.808 198.933 225.918 199.387 226.138 199.798C226.358 200.194 226.666 200.509 227.062 200.744C227.458 200.979 227.92 201.096 228.448 201.096Z"
                fill="white"
            />
        </svg>