<svg width="371" height="1777" viewBox="0 0 371 1777" fill="none" xmlns="http://www.w3.org/2000/svg">
<path d="M80.2302 1775L114.064 1581.3C127.215 1506.02 167.794 1438.27 227.965 1391.15L245.19 1377.66C278.602 1351.5 304.166 1316.64 319.078 1276.9L353.966 1183.95C396.788 1069.85 307.208 949.713 185.639 958.193V958.193C22.5958 969.567 -58.3921 764.471 68.4341 661.381L103.845 632.598L185.343 583.302C231.601 555.322 262.485 507.687 269.153 454.038L270.84 440.461C277.838 384.153 253.244 328.568 206.866 295.877V295.877C98.8495 219.735 130.923 51.8001 259.398 20.8265L320.896 6" stroke="#34D89D" stroke-width="12"/>
</svg>
