<svg width="53" height="36" viewBox="0 0 53 36" fill="none" xmlns="http://www.w3.org/2000/svg">
<path fill-rule="evenodd" clip-rule="evenodd" d="M7.52436 0C8.69032 0 9.63551 0.948103 9.63551 2.11765V10.5882H12.9376C14.1035 10.5882 15.0487 11.5363 15.0487 12.7059C15.0487 13.8754 14.1035 14.8235 12.9376 14.8235H9.63551V28.4525C9.63551 30.2818 11.1139 31.7647 12.9376 31.7647C14.7612 31.7647 16.2396 30.2818 16.2396 28.4525V22.819C16.2396 18.6506 19.6084 15.2715 23.764 15.2715C27.9196 15.2715 31.2883 18.6506 31.2883 22.819V25.8054C31.2883 27.6347 32.7667 29.1176 34.5904 29.1176C36.4141 29.1176 37.8925 27.6347 37.8925 25.8054V22.819C37.8925 18.6506 41.2612 15.2715 45.4168 15.2715C49.5724 15.2715 52.9412 18.6506 52.9412 22.819V33.8824C52.9412 35.0519 51.996 36 50.83 36C49.6641 36 48.7189 35.0519 48.7189 33.8824V22.819C48.7189 20.9897 47.2405 19.5068 45.4168 19.5068C43.5931 19.5068 42.1148 20.9897 42.1148 22.819V25.8054C42.1148 29.9738 38.746 33.3529 34.5904 33.3529C30.4348 33.3529 27.066 29.9738 27.066 25.8054V22.819C27.066 20.9897 25.5877 19.5068 23.764 19.5068C21.9403 19.5068 20.4619 20.9897 20.4619 22.819V28.4525C20.4619 32.6209 17.0932 36 12.9376 36C8.78198 36 5.41321 32.6209 5.41321 28.4525V14.8235H2.11115C0.945194 14.8235 0 13.8754 0 12.7059C0 11.5363 0.945194 10.5882 2.11115 10.5882H5.41321V2.11765C5.41321 0.948103 6.3584 0 7.52436 0Z" fill="#34D89D"/>
</svg>
